<mxfile host="app.diagrams.net" modified="2023-09-04T14:27:55.745Z" agent="Mozilla/5.0 (Windows NT 10.0; Win64; x64) AppleWebKit/537.36 (KHTML, like Gecko) Chrome/116.0.0.0 Safari/537.36" etag="bAhMQKvGkDC4CRLgGKtC" version="21.7.2" type="device" pages="2">
  <diagram name="Page-1" id="-L8IpsrKL2qUke-8sHYS">
    <mxGraphModel dx="1050" dy="542" grid="1" gridSize="12" guides="1" tooltips="1" connect="1" arrows="1" fold="1" page="1" pageScale="1" pageWidth="850" pageHeight="1100" math="0" shadow="0">
      <root>
        <mxCell id="0" />
        <mxCell id="1" parent="0" />
        <mxCell id="bkiTbfMIvXdjtyH1vkYS-26" value="&lt;div style=&quot;box-sizing:border-box;width:100%;background:#e4e4e4;padding:2px;&quot;&gt;ANIMALS&lt;/div&gt;&lt;table style=&quot;width:100%;font-size:1em;&quot; cellpadding=&quot;2&quot; cellspacing=&quot;0&quot;&gt;&lt;tbody&gt;&lt;tr&gt;&lt;td&gt;&lt;br&gt;&lt;/td&gt;&lt;td&gt;Animal_ID&amp;nbsp;&lt;span style=&quot;white-space: pre;&quot;&gt; &lt;span style=&quot;white-space: pre;&quot;&gt; &lt;/span&gt;&lt;/span&gt;(PK)&lt;/td&gt;&lt;/tr&gt;&lt;tr&gt;&lt;td&gt;&lt;br&gt;&lt;/td&gt;&lt;td&gt;Animal_Name&lt;br&gt;DateOfBirth&lt;br&gt;Gender&lt;br&gt;Weight&lt;br&gt;Vaccination&lt;br&gt;&lt;br&gt;&lt;br&gt;&lt;/td&gt;&lt;/tr&gt;&lt;tr&gt;&lt;td&gt;&lt;/td&gt;&lt;td&gt;&lt;br&gt;&lt;/td&gt;&lt;/tr&gt;&lt;/tbody&gt;&lt;/table&gt;" style="verticalAlign=top;align=left;overflow=fill;html=1;whiteSpace=wrap;" parent="1" vertex="1">
          <mxGeometry x="150" y="110" width="180" height="150" as="geometry" />
        </mxCell>
        <mxCell id="bkiTbfMIvXdjtyH1vkYS-28" value="&lt;div style=&quot;box-sizing:border-box;width:100%;background:#e4e4e4;padding:2px;&quot;&gt;TICKETS&lt;/div&gt;&lt;table style=&quot;width:100%;font-size:1em;&quot; cellpadding=&quot;2&quot; cellspacing=&quot;0&quot;&gt;&lt;tbody&gt;&lt;tr&gt;&lt;td&gt;&lt;br&gt;&lt;/td&gt;&lt;td&gt;Ticket_ID&lt;span style=&quot;white-space: pre;&quot;&gt; &lt;/span&gt;&lt;span style=&quot;white-space: pre;&quot;&gt; &lt;/span&gt;(PK)&lt;/td&gt;&lt;/tr&gt;&lt;tr&gt;&lt;td&gt;&lt;br&gt;&lt;/td&gt;&lt;td&gt;Description&lt;br&gt;Price&lt;br&gt;isTicketValid&lt;/td&gt;&lt;/tr&gt;&lt;tr&gt;&lt;td&gt;&lt;/td&gt;&lt;td&gt;&lt;br&gt;&lt;/td&gt;&lt;/tr&gt;&lt;/tbody&gt;&lt;/table&gt;" style="verticalAlign=top;align=left;overflow=fill;html=1;whiteSpace=wrap;" parent="1" vertex="1">
          <mxGeometry x="540" y="110" width="180" height="90" as="geometry" />
        </mxCell>
        <mxCell id="bkiTbfMIvXdjtyH1vkYS-29" value="&lt;div style=&quot;box-sizing:border-box;width:100%;background:#e4e4e4;padding:2px;&quot;&gt;VISITORS&lt;/div&gt;&lt;table style=&quot;width:100%;font-size:1em;&quot; cellpadding=&quot;2&quot; cellspacing=&quot;0&quot;&gt;&lt;tbody&gt;&lt;tr&gt;&lt;td&gt;&lt;br&gt;&lt;/td&gt;&lt;td&gt;Visitors_ID&lt;span style=&quot;white-space: pre;&quot;&gt; &lt;/span&gt;&lt;span style=&quot;white-space: pre;&quot;&gt; &lt;/span&gt;(PK)&lt;/td&gt;&lt;/tr&gt;&lt;tr&gt;&lt;td&gt;&lt;br&gt;&lt;/td&gt;&lt;td&gt;Visitors_LName&lt;br&gt;Visitors_Name&lt;/td&gt;&lt;/tr&gt;&lt;tr&gt;&lt;td&gt;&lt;/td&gt;&lt;td&gt;DateOfBirth&lt;br&gt;Contact_Number&lt;br&gt;&lt;br&gt;&lt;br&gt;&lt;/td&gt;&lt;/tr&gt;&lt;/tbody&gt;&lt;/table&gt;" style="verticalAlign=top;align=left;overflow=fill;html=1;whiteSpace=wrap;" parent="1" vertex="1">
          <mxGeometry x="150" y="400" width="180" height="130" as="geometry" />
        </mxCell>
        <mxCell id="bkiTbfMIvXdjtyH1vkYS-34" value="&lt;div style=&quot;box-sizing:border-box;width:100%;background:#e4e4e4;padding:2px;&quot;&gt;VISTORS_ON_TICKET&lt;/div&gt;&lt;table style=&quot;width:100%;font-size:1em;&quot; cellpadding=&quot;2&quot; cellspacing=&quot;0&quot;&gt;&lt;tbody&gt;&lt;tr&gt;&lt;td&gt;&lt;br&gt;&lt;/td&gt;&lt;td&gt;Visitors_on_Ticket&lt;span style=&quot;white-space: pre;&quot;&gt; &lt;/span&gt;&lt;span style=&quot;white-space: pre;&quot;&gt; &lt;/span&gt;(PK)&lt;/td&gt;&lt;/tr&gt;&lt;tr&gt;&lt;td&gt;&lt;br&gt;&lt;/td&gt;&lt;td&gt;Visitors_ID&lt;span style=&quot;white-space: pre;&quot;&gt; &lt;/span&gt;&lt;span style=&quot;white-space: pre;&quot;&gt; &lt;/span&gt;&lt;span style=&quot;white-space: pre;&quot;&gt; &lt;/span&gt;(PK)(FK)&lt;/td&gt;&lt;/tr&gt;&lt;tr&gt;&lt;td&gt;&lt;/td&gt;&lt;td&gt;Ticket_ID&lt;span style=&quot;white-space: pre;&quot;&gt; &lt;/span&gt;&lt;span style=&quot;white-space: pre;&quot;&gt; &lt;/span&gt;&lt;span style=&quot;white-space: pre;&quot;&gt; &lt;/span&gt;&lt;span style=&quot;white-space: pre;&quot;&gt; &lt;/span&gt;(PK)(FK)&lt;br&gt;Ticket_Date&lt;br&gt;Ticket_Amount&lt;br&gt;&lt;br&gt;&lt;br&gt;&lt;br&gt;&lt;/td&gt;&lt;/tr&gt;&lt;/tbody&gt;&lt;/table&gt;" style="verticalAlign=top;align=left;overflow=fill;html=1;whiteSpace=wrap;" parent="1" vertex="1">
          <mxGeometry x="540" y="370" width="200" height="160" as="geometry" />
        </mxCell>
        <mxCell id="bkiTbfMIvXdjtyH1vkYS-47" value="" style="fontSize=12;html=1;endArrow=ERoneToMany;startArrow=ERmandOne;rounded=0;entryX=0.422;entryY=-0.019;entryDx=0;entryDy=0;entryPerimeter=0;strokeWidth=1.5;" parent="1" target="bkiTbfMIvXdjtyH1vkYS-34" edge="1">
          <mxGeometry width="100" height="100" relative="1" as="geometry">
            <mxPoint x="624" y="204" as="sourcePoint" />
            <mxPoint x="484" y="168" as="targetPoint" />
            <Array as="points">
              <mxPoint x="624" y="216" />
            </Array>
          </mxGeometry>
        </mxCell>
        <mxCell id="bkiTbfMIvXdjtyH1vkYS-48" value="" style="fontSize=12;html=1;endArrow=ERoneToMany;startArrow=ERmandOne;rounded=0;strokeWidth=1.5;" parent="1" edge="1">
          <mxGeometry width="100" height="100" relative="1" as="geometry">
            <mxPoint x="330" y="444" as="sourcePoint" />
            <mxPoint x="540" y="444" as="targetPoint" />
            <Array as="points">
              <mxPoint x="486" y="444" />
              <mxPoint x="522" y="444" />
            </Array>
          </mxGeometry>
        </mxCell>
        <mxCell id="bkiTbfMIvXdjtyH1vkYS-49" value="Buys" style="text;html=1;strokeColor=none;fillColor=none;align=center;verticalAlign=middle;whiteSpace=wrap;rounded=0;" parent="1" vertex="1">
          <mxGeometry x="395" y="400" width="60" height="30" as="geometry" />
        </mxCell>
        <mxCell id="bkiTbfMIvXdjtyH1vkYS-50" value="Is bought" style="text;html=1;strokeColor=none;fillColor=none;align=center;verticalAlign=middle;whiteSpace=wrap;rounded=0;rotation=90;" parent="1" vertex="1">
          <mxGeometry x="624" y="260" width="60" height="30" as="geometry" />
        </mxCell>
        <mxCell id="bkiTbfMIvXdjtyH1vkYS-51" value="The data model for the zoo-mazing zoo" style="text;html=1;strokeColor=none;fillColor=none;align=center;verticalAlign=middle;whiteSpace=wrap;rounded=0;fontSize=15;" parent="1" vertex="1">
          <mxGeometry x="300" y="36" width="264" height="30" as="geometry" />
        </mxCell>
      </root>
    </mxGraphModel>
  </diagram>
  <diagram id="xQRWQNQ-7KNKPZ_MgeOz" name="Page-2">
    <mxGraphModel dx="1050" dy="542" grid="1" gridSize="12" guides="1" tooltips="1" connect="1" arrows="1" fold="1" page="1" pageScale="1" pageWidth="850" pageHeight="1100" math="0" shadow="0">
      <root>
        <mxCell id="0" />
        <mxCell id="1" parent="0" />
        <mxCell id="tXZaCO_OWPGi959PUDu3-1" value="Buy a Ticket" style="rounded=1;whiteSpace=wrap;html=1;fontSize=13;" parent="1" vertex="1">
          <mxGeometry x="282" y="454" width="168" height="86" as="geometry" />
        </mxCell>
        <mxCell id="tXZaCO_OWPGi959PUDu3-3" value="&lt;font style=&quot;font-size: 13px;&quot;&gt;D1&lt;span style=&quot;white-space: pre;&quot;&gt; &amp;nbsp;&lt;/span&gt;&amp;nbsp;&lt;/font&gt;&lt;font style=&quot;font-size: 13px;&quot;&gt;Ticket&lt;/font&gt;" style="html=1;dashed=0;whiteSpace=wrap;shape=mxgraph.dfd.dataStoreID;align=left;spacingLeft=3;points=[[0,0],[0.5,0],[1,0],[0,0.5],[1,0.5],[0,1],[0.5,1],[1,1]];" parent="1" vertex="1">
          <mxGeometry x="276" y="672" width="180" height="30" as="geometry" />
        </mxCell>
        <mxCell id="tXZaCO_OWPGi959PUDu3-4" value="&lt;font style=&quot;font-size: 13px;&quot;&gt;D2&lt;span style=&quot;white-space: pre;&quot;&gt; &lt;/span&gt;&amp;nbsp; &lt;/font&gt;&lt;font style=&quot;font-size: 13px;&quot;&gt;Visitors&lt;/font&gt;" style="html=1;dashed=0;whiteSpace=wrap;shape=mxgraph.dfd.dataStoreID;align=left;spacingLeft=3;points=[[0,0],[0.5,0],[1,0],[0,0.5],[1,0.5],[0,1],[0.5,1],[1,1]];" parent="1" vertex="1">
          <mxGeometry x="612" y="482" width="144" height="30" as="geometry" />
        </mxCell>
        <mxCell id="tXZaCO_OWPGi959PUDu3-5" value="" style="endArrow=classic;html=1;rounded=0;entryX=0.405;entryY=0.979;entryDx=0;entryDy=0;entryPerimeter=0;exitX=0.411;exitY=-0.113;exitDx=0;exitDy=0;exitPerimeter=0;" parent="1" source="tXZaCO_OWPGi959PUDu3-3" target="tXZaCO_OWPGi959PUDu3-1" edge="1">
          <mxGeometry width="50" height="50" relative="1" as="geometry">
            <mxPoint x="350" y="660" as="sourcePoint" />
            <mxPoint x="446" y="552" as="targetPoint" />
          </mxGeometry>
        </mxCell>
        <mxCell id="tXZaCO_OWPGi959PUDu3-6" value="" style="endArrow=classic;html=1;rounded=0;exitX=0.676;exitY=1.016;exitDx=0;exitDy=0;exitPerimeter=0;entryX=0.664;entryY=-0.087;entryDx=0;entryDy=0;entryPerimeter=0;" parent="1" source="tXZaCO_OWPGi959PUDu3-1" target="tXZaCO_OWPGi959PUDu3-3" edge="1">
          <mxGeometry width="50" height="50" relative="1" as="geometry">
            <mxPoint x="396" y="602" as="sourcePoint" />
            <mxPoint x="396" y="660" as="targetPoint" />
          </mxGeometry>
        </mxCell>
        <mxCell id="tXZaCO_OWPGi959PUDu3-7" value="Ticket_ID" style="text;html=1;strokeColor=none;fillColor=none;align=center;verticalAlign=middle;whiteSpace=wrap;rounded=0;" parent="1" vertex="1">
          <mxGeometry x="276" y="588" width="60" height="30" as="geometry" />
        </mxCell>
        <mxCell id="tXZaCO_OWPGi959PUDu3-8" value="Description&lt;br&gt;Price" style="text;html=1;strokeColor=none;fillColor=none;align=center;verticalAlign=middle;whiteSpace=wrap;rounded=0;" parent="1" vertex="1">
          <mxGeometry x="396" y="588" width="84" height="30" as="geometry" />
        </mxCell>
        <mxCell id="tXZaCO_OWPGi959PUDu3-10" value="" style="endArrow=classic;html=1;rounded=0;exitX=-0.014;exitY=0.78;exitDx=0;exitDy=0;exitPerimeter=0;entryX=1;entryY=0.588;entryDx=0;entryDy=0;entryPerimeter=0;" parent="1" source="tXZaCO_OWPGi959PUDu3-4" target="tXZaCO_OWPGi959PUDu3-1" edge="1">
          <mxGeometry width="50" height="50" relative="1" as="geometry">
            <mxPoint x="396" y="602" as="sourcePoint" />
            <mxPoint x="456" y="505" as="targetPoint" />
          </mxGeometry>
        </mxCell>
        <mxCell id="tXZaCO_OWPGi959PUDu3-13" value="1{Visitors_ID&lt;br&gt;+Visitors_LName&lt;br&gt;+Visitors_Name&lt;br&gt;+Age&lt;br&gt;+Contact_Number}N" style="text;html=1;strokeColor=none;fillColor=none;align=center;verticalAlign=middle;whiteSpace=wrap;rounded=0;" parent="1" vertex="1">
          <mxGeometry x="492" y="444" width="72" height="30" as="geometry" />
        </mxCell>
        <mxCell id="tXZaCO_OWPGi959PUDu3-16" style="edgeStyle=orthogonalEdgeStyle;rounded=0;orthogonalLoop=1;jettySize=auto;html=1;exitX=0.75;exitY=1;exitDx=0;exitDy=0;entryX=0.143;entryY=0.023;entryDx=0;entryDy=0;entryPerimeter=0;" parent="1" source="tXZaCO_OWPGi959PUDu3-14" target="tXZaCO_OWPGi959PUDu3-1" edge="1">
          <mxGeometry relative="1" as="geometry" />
        </mxCell>
        <mxCell id="tXZaCO_OWPGi959PUDu3-14" value="Visitors" style="rounded=0;whiteSpace=wrap;html=1;" parent="1" vertex="1">
          <mxGeometry x="216" y="240" width="120" height="60" as="geometry" />
        </mxCell>
        <mxCell id="tXZaCO_OWPGi959PUDu3-18" style="edgeStyle=orthogonalEdgeStyle;rounded=0;orthogonalLoop=1;jettySize=auto;html=1;entryX=0.895;entryY=-0.016;entryDx=0;entryDy=0;entryPerimeter=0;" parent="1" source="tXZaCO_OWPGi959PUDu3-15" target="tXZaCO_OWPGi959PUDu3-1" edge="1">
          <mxGeometry relative="1" as="geometry" />
        </mxCell>
        <mxCell id="tXZaCO_OWPGi959PUDu3-15" value="Staff" style="rounded=0;whiteSpace=wrap;html=1;" parent="1" vertex="1">
          <mxGeometry x="372" y="240" width="120" height="60" as="geometry" />
        </mxCell>
        <mxCell id="tXZaCO_OWPGi959PUDu3-19" value="Request to buy a ticket" style="text;html=1;strokeColor=none;fillColor=none;align=center;verticalAlign=middle;whiteSpace=wrap;rounded=0;" parent="1" vertex="1">
          <mxGeometry x="240" y="348" width="60" height="30" as="geometry" />
        </mxCell>
        <mxCell id="tXZaCO_OWPGi959PUDu3-22" value="Request&amp;nbsp; to buy a ticket&amp;nbsp;" style="text;html=1;strokeColor=none;fillColor=none;align=center;verticalAlign=middle;whiteSpace=wrap;rounded=0;" parent="1" vertex="1">
          <mxGeometry x="450" y="348" width="60" height="30" as="geometry" />
        </mxCell>
        <mxCell id="tXZaCO_OWPGi959PUDu3-24" value="" style="endArrow=classic;html=1;rounded=0;entryX=0;entryY=0.25;entryDx=0;entryDy=0;exitX=0;exitY=0.5;exitDx=0;exitDy=0;" parent="1" source="tXZaCO_OWPGi959PUDu3-1" target="tXZaCO_OWPGi959PUDu3-14" edge="1">
          <mxGeometry width="50" height="50" relative="1" as="geometry">
            <mxPoint x="216" y="278" as="sourcePoint" />
            <mxPoint x="266" y="228" as="targetPoint" />
            <Array as="points">
              <mxPoint x="156" y="497" />
              <mxPoint x="156" y="255" />
            </Array>
          </mxGeometry>
        </mxCell>
        <mxCell id="tXZaCO_OWPGi959PUDu3-25" value="" style="endArrow=classic;html=1;rounded=0;" parent="1" edge="1">
          <mxGeometry width="50" height="50" relative="1" as="geometry">
            <mxPoint x="395" y="456" as="sourcePoint" />
            <mxPoint x="395" y="300" as="targetPoint" />
          </mxGeometry>
        </mxCell>
        <mxCell id="tXZaCO_OWPGi959PUDu3-26" value="Confirmation message" style="text;html=1;strokeColor=none;fillColor=none;align=center;verticalAlign=middle;whiteSpace=wrap;rounded=0;rotation=270;" parent="1" vertex="1">
          <mxGeometry x="336" y="360" width="60" height="30" as="geometry" />
        </mxCell>
        <mxCell id="tXZaCO_OWPGi959PUDu3-27" value="Confirmation message" style="text;html=1;strokeColor=none;fillColor=none;align=center;verticalAlign=middle;whiteSpace=wrap;rounded=0;rotation=270;" parent="1" vertex="1">
          <mxGeometry x="96" y="360" width="60" height="30" as="geometry" />
        </mxCell>
        <mxCell id="tXZaCO_OWPGi959PUDu3-29" value="The process model for Buying a Ticket at the Zoo" style="text;html=1;strokeColor=none;fillColor=none;align=center;verticalAlign=middle;whiteSpace=wrap;rounded=0;fontSize=13;" parent="1" vertex="1">
          <mxGeometry x="198" y="108" width="312" height="30" as="geometry" />
        </mxCell>
      </root>
    </mxGraphModel>
  </diagram>
</mxfile>
